<svg width="32" height="32" viewBox="0 0 32 32" fill="none" xmlns="http://www.w3.org/2000/svg">
<path d="M5.69961 17.5L17.0496 28.85C17.3496 29.15 17.4996 29.5 17.4996 29.9C17.4996 30.3 17.3496 30.65 17.0496 30.95C16.7496 31.25 16.3996 31.4 15.9996 31.4C15.5996 31.4 15.2496 31.25 14.9496 30.95L1.04961 17.05C0.882943 16.8833 0.766276 16.7166 0.699609 16.55C0.632943 16.3833 0.599609 16.2 0.599609 16C0.599609 15.8 0.632943 15.6166 0.699609 15.45C0.766276 15.2833 0.882943 15.1166 1.04961 14.95L14.9496 1.04998C15.2496 0.749976 15.5996 0.599976 15.9996 0.599976C16.3996 0.599976 16.7496 0.749976 17.0496 1.04998C17.3496 1.34998 17.4996 1.69998 17.4996 2.09998C17.4996 2.49998 17.3496 2.84998 17.0496 3.14998L5.69961 14.5H30.4996C30.9329 14.5 31.2913 14.6416 31.5746 14.925C31.8579 15.2083 31.9996 15.5666 31.9996 16C31.9996 16.4333 31.8579 16.7916 31.5746 17.075C31.2913 17.3583 30.9329 17.5 30.4996 17.5H5.69961Z" fill="white"/>
</svg>
