<svg width="11" height="14" viewBox="0 0 11 14" fill="none" xmlns="http://www.w3.org/2000/svg">
<path d="M0 12.175V1.82495C0 1.54162 0.1 1.30412 0.3 1.11245C0.5 0.920785 0.733333 0.824951 1 0.824951C1.08333 0.824951 1.17083 0.837451 1.2625 0.862451C1.35417 0.887451 1.44167 0.924951 1.525 0.974951L9.675 6.14995C9.825 6.24995 9.9375 6.37495 10.0125 6.52495C10.0875 6.67495 10.125 6.83328 10.125 6.99995C10.125 7.16662 10.0875 7.32495 10.0125 7.47495C9.9375 7.62495 9.825 7.74995 9.675 7.84995L1.525 13.025C1.44167 13.075 1.35417 13.1125 1.2625 13.1375C1.17083 13.1625 1.08333 13.175 1 13.175C0.733333 13.175 0.5 13.0791 0.3 12.8875C0.1 12.6958 0 12.4583 0 12.175Z" fill="white"/>
</svg>
