<svg width="22" height="20" viewBox="0 0 22 20" fill="none" xmlns="http://www.w3.org/2000/svg">
<path d="M14.175 5.32498C14.6583 5.80831 15.0125 6.35831 15.2375 6.97498C15.4625 7.59164 15.5417 8.22498 15.475 8.87498C15.475 9.12498 15.3833 9.33748 15.2 9.51248C15.0167 9.68748 14.8 9.77498 14.55 9.77498C14.3 9.77498 14.0875 9.68748 13.9125 9.51248C13.7375 9.33748 13.65 9.12498 13.65 8.87498C13.7333 8.44164 13.7083 8.02498 13.575 7.62498C13.4417 7.22498 13.2333 6.88331 12.95 6.59998C12.6667 6.31664 12.325 6.09998 11.925 5.94998C11.525 5.79998 11.1 5.76664 10.65 5.84998C10.4 5.84998 10.1875 5.75831 10.0125 5.57498C9.8375 5.39164 9.75 5.17498 9.75 4.92498C9.75 4.67498 9.8375 4.46248 10.0125 4.28748C10.1875 4.11248 10.4 4.02498 10.65 4.02498C11.2833 3.95831 11.9083 4.03748 12.525 4.26248C13.1417 4.48748 13.6917 4.84164 14.175 5.32498ZM11 2.99998C10.6833 2.99998 10.375 3.01248 10.075 3.03748C9.775 3.06248 9.475 3.10831 9.175 3.17498C8.89167 3.22498 8.6375 3.18331 8.4125 3.04998C8.1875 2.91664 8.03333 2.71664 7.95 2.44998C7.86667 2.18331 7.89583 1.92498 8.0375 1.67498C8.17917 1.42498 8.38333 1.27498 8.65 1.22498C9.03333 1.14164 9.42083 1.08331 9.8125 1.04998C10.2042 1.01664 10.6 0.999976 11 0.999976C13.2833 0.999976 15.3708 1.59998 17.2625 2.79998C19.1542 3.99998 20.6 5.61664 21.6 7.64998C21.6667 7.78331 21.7167 7.92081 21.75 8.06248C21.7833 8.20414 21.8 8.34998 21.8 8.49998C21.8 8.64998 21.7875 8.79581 21.7625 8.93748C21.7375 9.07914 21.6917 9.21664 21.625 9.34998C21.325 10.0166 20.9542 10.6416 20.5125 11.225C20.0708 11.8083 19.5833 12.3416 19.05 12.825C18.85 13.0083 18.6167 13.0833 18.35 13.05C18.0833 13.0166 17.8667 12.8833 17.7 12.65C17.5333 12.4166 17.4625 12.1625 17.4875 11.8875C17.5125 11.6125 17.625 11.3833 17.825 11.2C18.225 10.8166 18.5917 10.4 18.925 9.94998C19.2583 9.49998 19.55 9.01664 19.8 8.49998C18.9667 6.81664 17.7625 5.47914 16.1875 4.48748C14.6125 3.49581 12.8833 2.99998 11 2.99998ZM11 16C8.76667 16 6.725 15.3958 4.875 14.1875C3.025 12.9791 1.56667 11.3916 0.5 9.42498C0.416667 9.29164 0.354167 9.14581 0.3125 8.98748C0.270833 8.82914 0.25 8.66664 0.25 8.49998C0.25 8.33331 0.266667 8.17498 0.3 8.02498C0.333333 7.87498 0.391667 7.72498 0.475 7.57498C0.808333 6.90831 1.19583 6.27081 1.6375 5.66248C2.07917 5.05414 2.58333 4.49998 3.15 3.99998L1.075 1.89998C0.891667 1.69998 0.804167 1.46248 0.8125 1.18748C0.820833 0.912476 0.916667 0.683309 1.1 0.499976C1.28333 0.316642 1.51667 0.224976 1.8 0.224976C2.08333 0.224976 2.31667 0.316642 2.5 0.499976L19.5 17.5C19.6833 17.6833 19.7792 17.9125 19.7875 18.1875C19.7958 18.4625 19.7 18.7 19.5 18.9C19.3167 19.0833 19.0833 19.175 18.8 19.175C18.5167 19.175 18.2833 19.0833 18.1 18.9L14.6 15.45C14.0167 15.6333 13.425 15.7708 12.825 15.8625C12.225 15.9541 11.6167 16 11 16ZM4.55 5.39998C4.06667 5.83331 3.625 6.30831 3.225 6.82498C2.825 7.34164 2.48333 7.89998 2.2 8.49998C3.03333 10.1833 4.2375 11.5208 5.8125 12.5125C7.3875 13.5041 9.11667 14 11 14C11.3333 14 11.6583 13.9791 11.975 13.9375C12.2917 13.8958 12.6167 13.85 12.95 13.8L12.05 12.85C11.8667 12.9 11.6917 12.9375 11.525 12.9625C11.3583 12.9875 11.1833 13 11 13C9.75 13 8.6875 12.5625 7.8125 11.6875C6.9375 10.8125 6.5 9.74998 6.5 8.49998C6.5 8.31664 6.5125 8.14164 6.5375 7.97498C6.5625 7.80831 6.6 7.63331 6.65 7.44998L4.55 5.39998Z" fill="#2E3EDF"/>
</svg>
